<?xml version="1.0" standalone="no"?>
<!DOCTYPE svg PUBLIC "-//W3C//DTD SVG 20010904//EN"
 "http://www.w3.org/TR/2001/REC-SVG-20010904/DTD/svg10.dtd">
<svg version="1.0" xmlns="http://www.w3.org/2000/svg"
 width="256" height="256" viewBox="0 0 300 300"
 preserveAspectRatio="xMidYMid meet">
<metadata>
Created by potrace 1.10, written by Peter Selinger 2001-2011
</metadata>
<g transform="translate(0.000000,300.000000) scale(0.100000,-0.100000)"
fill="#c92021" stroke="none">
<path d="M1265 2884 c-287 -50 -548 -186 -755 -394 -165 -164 -268 -331 -340
-549 -51 -154 -70 -274 -70 -441 0 -152 17 -270 57 -402 l26 -87 44 34 c24 19
48 35 53 37 5 2 -2 45 -15 96 -143 549 91 1121 578 1417 399 241 915 241 1314
0 43 -26 97 -62 120 -81 23 -19 44 -34 47 -34 3 0 23 19 45 43 37 40 39 43 23
61 -26 28 -188 133 -265 173 -96 48 -284 108 -396 127 -117 20 -355 20 -466 0z"/>
<path d="M2445 2449 c-43 -52 -102 -119 -129 -149 -28 -31 -112 -125 -186
-210 -74 -85 -162 -184 -194 -220 -202 -222 -269 -294 -340 -365 l-78 -80 35
65 c19 36 90 162 157 280 339 596 321 551 244 619 -51 45 -128 74 -168 63 -15
-4 -62 -50 -118 -117 -50 -60 -162 -193 -247 -295 -316 -377 -439 -515 -390
-440 79 125 202 337 218 379 52 130 5 291 -102 352 -36 21 -54 24 -132 23
-153 -1 -277 -63 -425 -213 -103 -104 -158 -190 -218 -339 -33 -81 -34 -89
-30 -186 6 -154 50 -230 121 -212 21 5 34 27 78 131 55 133 147 296 222 392
92 120 262 261 285 238 10 -9 -21 -61 -228 -375 -148 -226 -504 -805 -569
-928 -17 -33 0 -80 47 -124 44 -42 91 -68 125 -68 33 0 202 155 480 439 195
201 244 245 204 186 -8 -11 -32 -54 -55 -95 -22 -41 -73 -133 -112 -205 -39
-71 -74 -145 -77 -163 -5 -29 -1 -38 40 -77 59 -56 144 -85 188 -64 41 21 327
290 486 458 76 80 168 178 205 216 l68 70 -56 -125 c-88 -197 -104 -253 -104
-363 0 -84 3 -101 28 -148 18 -36 43 -64 72 -84 42 -28 51 -30 135 -30 81 0
96 3 158 33 140 69 308 220 438 394 110 148 142 258 101 350 -34 78 -84 75
-137 -10 -130 -204 -485 -582 -548 -582 -17 0 -19 5 -14 36 11 69 142 310 415
764 253 422 422 712 422 725 0 25 -47 81 -93 109 -28 17 -66 31 -95 34 l-48 4
-79 -93z"/>
<path d="M2744 2109 c-3 -6 -26 -20 -50 -30 l-43 -19 30 -73 c152 -367 120
-805 -86 -1144 -191 -315 -497 -528 -863 -600 -117 -23 -347 -23 -464 0 -235
46 -455 155 -617 304 l-65 60 -59 -31 -60 -31 79 -73 c88 -82 221 -175 327
-229 100 -50 285 -109 405 -129 137 -22 396 -15 522 14 542 127 945 530 1072
1072 29 126 36 386 13 522 -18 107 -61 255 -101 346 -24 54 -28 59 -40 41z"/>
</g>
</svg>
